<svg xmlns="http://www.w3.org/2000/svg" width="34" height="22" viewBox="0 0 34 22">
  <defs>
    <style>
      .cls-1 {
        fill: #18cfab;
        fill-rule: evenodd;
      }
    </style>
  </defs>
  <path id="Forma_1" data-name="Forma 1" class="cls-1" d="M33.952,18.76a0.171,0.171,0,0,0-.13-0.059H0.178a0.172,0.172,0,0,0-.13.059,0.167,0.167,0,0,0-.04.135c0,0.032.512,3.1,4.451,3.1H29.542c3.939,0,4.446-3.07,4.451-3.1A0.168,0.168,0,0,0,33.952,18.76ZM19.53,20.923H14.47V19.777H19.53v1.146ZM3.673,17.509H30.327a0.694,0.694,0,0,0,.7-0.688V0.685A0.693,0.693,0,0,0,30.327,0H3.673a0.693,0.693,0,0,0-.7.688V16.82A0.694,0.694,0,0,0,3.673,17.509Zm1.745-15.1H28.582V15.1H5.418V2.406Z"/>
</svg>
