<svg xmlns="http://www.w3.org/2000/svg" width="27" height="22" viewBox="0 0 27 22">
  <defs>
    <style>
      .cls-1 {
        fill: #18cfab;
        fill-rule: evenodd;
      }
    </style>
  </defs>
  <path id="Forma_1" data-name="Forma 1" class="cls-1" d="M13.171,13.011H12.514a0.62,0.62,0,0,1-.617-0.623,0.471,0.471,0,0,1,.141-0.338,4.478,4.478,0,0,0,.936-1.421,0.265,0.265,0,0,0,.155.061,1.508,1.508,0,0,0,.8-1.381c0-.559-0.051-1.013-0.42-1.013a0.574,0.574,0,0,0-.137.019C13.348,6.8,12.967,4.9,10.667,4.9c-2.4,0-2.68,1.892-2.707,3.407a0.515,0.515,0,0,0-.1-0.014c-0.369,0-.42.454-0.42,1.013a1.506,1.506,0,0,0,.8,1.381,0.246,0.246,0,0,0,.127-0.037,4.472,4.472,0,0,0,.925,1.4,0.477,0.477,0,0,1,.141.339,0.62,0.62,0,0,1-.617.621H8.162a2.554,2.554,0,0,0-2.544,2.563v0.71a0.805,0.805,0,0,0,.8.811h8.489a0.805,0.805,0,0,0,.8-0.811v-0.71A2.552,2.552,0,0,0,13.171,13.011Zm7.616-7.033H13.668a5.3,5.3,0,0,1,.413,1.72,1.038,1.038,0,0,1,.359.429h6.346a0.6,0.6,0,0,0,.6-0.6V6.578A0.6,0.6,0,0,0,20.786,5.978Zm0,3.919h-6.2a2.073,2.073,0,0,1-1.156,1.489c-0.017.031-.037,0.06-0.054,0.09v0.57h7.41a0.6,0.6,0,0,0,.6-0.6V10.5A0.6,0.6,0,0,0,20.786,9.9Zm0,3.919h-4.84a3.3,3.3,0,0,1,.507,1.756v0.395h4.333a0.6,0.6,0,0,0,.6-0.6V14.415A0.6,0.6,0,0,0,20.786,13.817ZM23.344,0H3.656A3.671,3.671,0,0,0,0,3.682V18.313A3.671,3.671,0,0,0,3.656,22H23.344A3.67,3.67,0,0,0,27,18.313V3.682A3.671,3.671,0,0,0,23.344,0Zm1.93,18.316a1.941,1.941,0,0,1-1.93,1.946H3.656a1.94,1.94,0,0,1-1.93-1.946V3.682a1.939,1.939,0,0,1,1.93-1.945H23.344a1.939,1.939,0,0,1,1.93,1.945V18.313Z"/>
</svg>
