<svg xmlns="http://www.w3.org/2000/svg" width="99" height="76" viewBox="0 0 99 76">
  <defs>
    <style>
      .cls-1 {
        fill: #fff;
        fill-rule: evenodd;
      }
    </style>
  </defs>
  <path id="Forma_1" data-name="Forma 1" class="cls-1" d="M0,76H38.8V18.976H0V76ZM20.217,73.14A1.833,1.833,0,1,1,22.088,71.3,1.856,1.856,0,0,1,20.217,73.14ZM5.61,24.47h27.58l0,42.073H5.61V24.47ZM19.188,5.363H81.362V30.082h5.479V0H13.71V16.538h5.478V5.363ZM41.3,41.873H70.111v5.366H41.3V41.873Zm31.645-9.71V75.106H99V32.164H72.943ZM86.55,33.942a0.618,0.618,0,1,1-.631.617A0.622,0.622,0,0,1,86.55,33.942ZM82.8,36h7.5v0.59H82.8V36Zm3.5,37.251a1.474,1.474,0,1,1,1.5-1.475A1.492,1.492,0,0,1,86.3,73.253ZM94.819,68.2c-6.767.038-14.34,0.062-17.695,0.035V38.7l17.695,0V68.2ZM49.227,49.435H41.3v3.252H60.611v1.425H41.3v2.94H70.111V49.435H49.227Z"/>
</svg>
