<svg xmlns="http://www.w3.org/2000/svg" width="60" height="96" viewBox="0 0 60 96">
  <defs>
    <style>
      .cls-1 {
        fill: #18cfab;
        fill-rule: evenodd;
      }
    </style>
  </defs>
  <path id="Forma_1" data-name="Forma 1" class="cls-1" d="M48,75a3,3,0,0,1-3,3H15a3,3,0,1,1,0-6H45A3,3,0,0,1,48,75Zm-3,6H15a3,3,0,1,0,0,6H45A3,3,0,1,0,45,81ZM24,96H36a6,6,0,0,0,6-6H18A6,6,0,0,0,24,96ZM60,30c0,16.312-9.832,18.211-11.678,36a3,3,0,0,1-3,3H14.678a3,3,0,0,1-3-3H11.672C9.832,48.208,0,46.309,0,30A30,30,0,1,1,60,30ZM42.146,21c-34.875,8.25-18,30-18,30,0-12,8.813-14.813,9-14.438-6.187,6-9,26.438-9,26.438h6V51C47.209,51.935,42.146,23.059,42.146,21Z"/>
</svg>
