<svg xmlns="http://www.w3.org/2000/svg" width="58" height="97" viewBox="0 0 58 97">
  <defs>
    <style>
      .cls-1 {
        fill: #18cfab;
        fill-rule: evenodd;
      }
    </style>
  </defs>
  <path id="Forma_1" data-name="Forma 1" class="cls-1" d="M16.418,94.832A2.162,2.162,0,0,0,18.562,97H50.241a2.162,2.162,0,0,0,2.143-2.166V89.868H16.418v4.964ZM15.7,34.977l0.011-15.848a6.833,6.833,0,0,1,1.94-4.822A7.726,7.726,0,0,1,23.138,12.1a7.465,7.465,0,0,1,4.437,1.42A6.591,6.591,0,0,1,30.168,18.2c0,0.044.846,8.309,1.607,15.708A18.235,18.235,0,0,0,22.688,0,18.235,18.235,0,0,0,15.7,34.977ZM58,55.657a4.857,4.857,0,0,0-3.333-4.635c-5.948-1.962-17.951-5.872-19.783-6.241a8.992,8.992,0,0,0-1.661-.161A5.267,5.267,0,0,0,29.75,45.7H29.739V45.691c-0.011-.086-2.776-27.113-2.776-27.157a3.589,3.589,0,0,0-3.837-3.2c-2.079,0-4.222,1.321-4.211,3.779l-0.022,43.8A1.033,1.033,0,0,1,18,63.944H17.983a0.529,0.529,0,0,1-.139.012H17.811c-1.457-.044-4.747-0.087-7.952-4.778-0.429-.617-0.815-1.18-1.168-1.7a4.876,4.876,0,0,0-4.008-2.306A4.337,4.337,0,0,0,.536,60.544c0.772,4.691,5.851,15.62,15.861,25.87H52.363L56,80.206a14.329,14.329,0,0,0,1.983-7.28Z"/>
</svg>
