<svg xmlns="http://www.w3.org/2000/svg" width="20" height="35" viewBox="0 0 20 35">
  <defs>
    <style>
      .cls-1 {
        fill: #18cfab;
        fill-rule: evenodd;
      }
    </style>
  </defs>
  <path id="Forma_1" data-name="Forma 1" class="cls-1" d="M14.945,27.658H5.055a0.952,0.952,0,0,0,0,1.9h9.892A0.953,0.953,0,0,0,14.945,27.658Zm-0.21,2.73H5.264a0.94,0.94,0,0,0,0,1.88h9.472A0.94,0.94,0,0,0,14.736,30.387ZM13.5,33.117h-7A0.94,0.94,0,0,0,6.506,35h6.989A0.94,0.94,0,0,0,13.5,33.117ZM10.162,0H9.838C4.4,0,0,4.914,0,10.967c0,2.819.745,4.622,2.53,7.313,1.07,1.615,2.55,2.828,2.778,8.469h9.384c0.229-5.641,1.71-6.849,2.778-8.464C19.254,15.593,20,13.78,20,10.963,20,4.908,15.595,0,10.162,0Zm3.459,12.7L10.3,16.154v8.089a0.3,0.3,0,1,1-.595,0V16.154L6.379,12.692a0.32,0.32,0,0,1,.007-0.447,0.308,0.308,0,0,1,.44,0L10,15.55l3.174-3.3a0.309,0.309,0,0,1,.44,0A0.321,0.321,0,0,1,13.621,12.692Z"/>
</svg>
