<svg xmlns="http://www.w3.org/2000/svg" width="24.375" height="34" viewBox="0 0 24.375 34">
  <defs>
    <style>
      .cls-1 {
        fill: #18cfab;
        fill-rule: evenodd;
      }
    </style>
  </defs>
  <path id="Forma_1" data-name="Forma 1" class="cls-1" d="M21.2,0a19.483,19.483,0,0,1-5.818,3.81C-7,11.909,2.441,27.7,2.749,27.755A12.873,12.873,0,0,1,5.7,24.318C16.46,16.4,18.647,7.288,18.647,7.288S16.232,18.253,6.66,25.077C4.545,26.583,3.114,30.292,2.508,34c0,0,1.5-.605,2.143-0.771a11.939,11.939,0,0,1,1.665-4.615C19.7,30.2,24.077,19.415,24.649,15.653A23.263,23.263,0,0,0,21.2,0Z" transform="translate(-0.5)"/>
</svg>
