<svg xmlns="http://www.w3.org/2000/svg" width="25.875" height="23.875" viewBox="0 0 25.875 23.875">
  <defs>
    <style>
      .cls-1 {
        fill: #18cfab;
        fill-rule: evenodd;
      }
    </style>
  </defs>
  <path id="Forma_1" data-name="Forma 1" class="cls-1" d="M1.11,9.215a1.607,1.607,0,0,0-.376,2.812l5.285,3.811L24.792,1.2l-16.6,16.2,7.225,5.21a1.833,1.833,0,0,0,1.6.266,1.808,1.808,0,0,0,1.176-1.1L25.922,0.817a0.574,0.574,0,0,0-.139-0.61A0.582,0.582,0,0,0,25.165.079ZM4.765,17.1L4.81,17.348l1.026,5.558a1.256,1.256,0,0,0,.742.925,1.27,1.27,0,0,0,1.189-.1,34.252,34.252,0,0,0,3.244-2.2Z" transform="translate(-0.063 -0.063)"/>
</svg>
