<svg xmlns="http://www.w3.org/2000/svg" width="27.75" height="27.75" viewBox="0 0 27.75 27.75">
  <defs>
    <style>
      .cls-1 {
        fill: #18cfab;
        fill-rule: evenodd;
      }
    </style>
  </defs>
  <path id="Forma_1" data-name="Forma 1" class="cls-1" d="M26.984,23.3l-6.366-6.366a12.242,12.242,0,0,1-3.678,3.678l6.366,6.365A2.6,2.6,0,1,0,26.984,23.3ZM20.809,10.4a10.4,10.4,0,1,0-10.4,10.4A10.405,10.405,0,0,0,20.809,10.4Zm-10.4,7.8a7.8,7.8,0,1,1,7.8-7.8A7.812,7.812,0,0,1,10.4,18.206ZM4.335,10.4H6.069A4.342,4.342,0,0,1,10.4,6.066V4.334A6.076,6.076,0,0,0,4.335,10.4Z"/>
</svg>
