<svg xmlns="http://www.w3.org/2000/svg" width="23.781" height="24" viewBox="0 0 23.781 24">
  <defs>
    <style>
      .cls-1 {
        fill: #18cfab;
        fill-rule: evenodd;
      }
    </style>
  </defs>
  <path id="Forma_1" data-name="Forma 1" class="cls-1" d="M0.87,20.16a2.262,2.262,0,0,0,0,3.179,2.215,2.215,0,0,0,3.151,0l7.314-7.38L8.184,12.781ZM19.149,6.483L22.331,4.82,24,1.566,22.446,0,19.222,1.682,17.574,4.894,13.7,8.807,15.27,10.4Zm0.7,8.531-0.3-.03a4.362,4.362,0,0,0-1.54.293L8.861,6.047A4.51,4.51,0,0,0,9.15,4.493l-0.03-.3A4.459,4.459,0,0,0,4.7,0a4.376,4.376,0,0,0-1.91.449l2.96,2.987a1.483,1.483,0,0,1,.334.539,1.5,1.5,0,0,1-.334,1.578,1.467,1.467,0,0,1-1.05.44,1.574,1.574,0,0,1-1.05-.44L0.686,2.566A4.462,4.462,0,0,0,4.4,8.96L4.7,8.989A4.392,4.392,0,0,0,6.236,8.7l9.143,9.227a4.518,4.518,0,0,0-.289,1.553l0.031,0.3a4.458,4.458,0,0,0,4.424,4.194,4.365,4.365,0,0,0,1.91-.449L18.5,20.538A1.49,1.49,0,0,1,18.16,20a1.51,1.51,0,0,1,.335-1.582,1.478,1.478,0,0,1,1.05-.438,1.455,1.455,0,0,1,.515.1,1.479,1.479,0,0,1,.535.336l2.96,2.987A4.46,4.46,0,0,0,19.845,15.014Z" transform="translate(-0.219)"/>
</svg>
