<svg xmlns="http://www.w3.org/2000/svg" width="22" height="30" viewBox="0 0 22 30">
  <defs>
    <style>
      .cls-1 {
        fill: #18cfab;
        fill-rule: evenodd;
      }
    </style>
  </defs>
  <path id="Forma_1" data-name="Forma 1" class="cls-1" d="M20.275,2.57h0.863A0.86,0.86,0,0,0,22,1.711V0.855A0.859,0.859,0,0,0,21.137,0H0.863A0.859,0.859,0,0,0,0,.855V1.711a0.861,0.861,0,0,0,.863.858H1.725C1.725,10.2,7.846,10.5,8.2,15c-0.35,4.5-6.471,4.8-6.471,12.429H0.863A0.86,0.86,0,0,0,0,28.284V29.14A0.86,0.86,0,0,0,.863,30H21.137A0.859,0.859,0,0,0,22,29.14V28.284a0.86,0.86,0,0,0-.863-0.858H20.275C20.275,19.8,14.154,19.5,13.8,15,14.154,10.5,20.275,10.2,20.275,2.57ZM17.659,26.715a0.428,0.428,0,0,1-.355.671H4.629a0.429,0.429,0,0,1-.373-0.648,23.993,23.993,0,0,1,6.454-6.914,0.443,0.443,0,0,1,.559.027A40.756,40.756,0,0,1,17.659,26.715ZM10.966,12.906L6.366,8.35a13.572,13.572,0,0,0,4.193.935c1.881,0,3.488-1.324,4.9-1.324S10.966,12.906,10.966,12.906Z"/>
</svg>
